<svg xmlns="http://www.w3.org/2000/svg" xml:space="preserve" id="dog" x="0" y="0" version="1.1" viewBox="0 0 24 24">
  <path fill="#303C42" d="M22 4H2C.897 4 0 4.897 0 6v12c0 1.103.897 2 2 2h20c1.103 0 2-.897 2-2V6c0-1.103-.897-2-2-2z"></path>
  <path fill="#FFD54F" d="M23 18c0 .551-.449 1-1 1H2c-.551 0-1-.449-1-1V6c0-.551.449-1 1-1h20c.551 0 1 .449 1 1v12z"></path>
  <linearGradient id="SVGID_1_" x1="5.141" x2="17.032" y1="10.106" y2="21.998" gradientUnits="userSpaceOnUse">
    <stop offset="0" stop-opacity=".1"></stop>
    <stop offset="1" stop-opacity="0"></stop>
  </linearGradient>
  <path fill="url(#SVGID_1_)" d="M4.811 10.75l-.001.003.015.015-.014-.017zm-.095.142l-.004.007c.014.014.032.02.046.035l-.042-.042zm4.51-2.697l-.01.016c.026.019.056.033.08.055l-.07-.071zm.16.16c.224.254.35.61.341 1.023a2.163 2.163 0 0 1-.034.324c-.157.87-.786 1.525-1.463 1.525-.272 0-.53-.11-.723-.308-.25-.255-.381-.635-.37-1.07.003-.105.013-.214.034-.326.007-.04.02-.076.03-.115l-.681-.68-.002.002a2.203 2.203 0 0 1 .345 1.119c.011.435-.12.815-.37 1.07-.193.199-.45.308-.723.308-.324 0-.635-.153-.891-.405l1.09 1.09c.227-.232.548-.412 1.031-.412 1.062 0 1.37.858 1.518 1.27.028.08.048.15.078.2.087.104.206.21.323.318.355.326.798.732.808 1.41.007.47-.182.761-.342.924-.244.247-.595.378-1.014.378-.46 0-.753-.156-.966-.27-.349-.186-.462-.186-.81 0-.214.114-.506.27-.966.27-.36 0-.655-.115-.89-.299L8.04 19H20.03L9.385 8.355zm-3.971 4.6c.018-.034.04-.106.067-.184.07-.193.177-.482.377-.736l-1.1-1.099c.23.243.404.583.478.97a2 2 0 0 1 .036.364c0 .688-.401 1.185-.955 1.185-.275 0-.54-.139-.762-.358l.914.914c.164-.295.398-.528.611-.723.117-.107.236-.214.334-.333zm-.954 2.468l.007.006-.005-.008-.002.002zM3.46 13l.032.032c-.01-.012-.017-.028-.027-.04L3.459 13z"></path>
  <path fill="#303C42" d="M20.5 15h-7a.5.5 0 1 0 0 1h7a.5.5 0 1 0 0-1zM20.5 12h-7a.5.5 0 1 0 0 1h7a.5.5 0 1 0 0-1zM20.5 9h-7a.5.5 0 1 0 0 1h7a.5.5 0 1 0 0-1zM8.919 13.288c-.117-.107-.236-.214-.323-.318-.03-.05-.05-.12-.078-.2C8.37 12.359 8.062 11.5 7 11.5c-1.063 0-1.37.858-1.518 1.27-.028.08-.049.15-.067.185-.098.12-.217.226-.334.333-.355.326-.798.732-.808 1.41-.007.47.182.761.342.924.244.247.595.378 1.014.378.46 0 .752-.156.966-.27.348-.186.461-.186.81 0 .213.114.506.27.966.27.419 0 .77-.13 1.014-.378.16-.163.349-.455.342-.924-.01-.678-.453-1.084-.808-1.41z"></path>
  <path fill="#6D4C41" d="M8.673 14.92c-.05.05-.163.08-.302.08-.21 0-.324-.06-.496-.152-.21-.112-.471-.252-.875-.252s-.666.14-.875.252c-.172.091-.286.152-.496.152-.14 0-.252-.03-.302-.08-.047-.048-.055-.14-.054-.209.003-.234.186-.413.484-.686.152-.14.303-.28.43-.434.113-.138.173-.306.237-.483.166-.463.267-.608.576-.608s.41.145.576.608c.064.177.124.345.237.483.127.154.278.295.43.434.298.273.48.452.484.687.001.068-.007.16-.054.207z"></path>
  <path fill="#303C42" d="M10.046 10.545c-.584 0-1.135.585-1.283 1.361a2.007 2.007 0 0 0-.036.366c0 .686.401 1.183.955 1.183.583 0 1.134-.585 1.282-1.361a1.95 1.95 0 0 0 .036-.366c0-.379-.118-.707-.334-.923a.873.873 0 0 0-.62-.26z"></path>
  <path fill="#6D4C41" d="M9.982 11.906a.964.964 0 0 1-.243.496.597.597 0 0 1-.012-.127 1 1 0 0 1 .018-.181.958.958 0 0 1 .243-.496.654.654 0 0 1 .012.13.974.974 0 0 1-.018.178z"></path>
  <path fill="#303C42" d="M8.23 11.227c.677 0 1.306-.655 1.463-1.524v-.001c.02-.111.031-.22.034-.324.01-.435-.122-.816-.37-1.07A1.005 1.005 0 0 0 8.632 8c-.676 0-1.305.655-1.462 1.523-.02.112-.031.22-.034.326-.011.435.12.815.37 1.07.193.199.45.308.723.308z"></path>
  <path fill="#6D4C41" d="M8.155 9.703c.077-.43.358-.703.478-.704.026.015.1.13.094.355a1.054 1.054 0 0 1-.018.17c-.078.43-.358.703-.478.704-.026-.015-.1-.13-.094-.355 0-.054.007-.11.018-.17z"></path>
  <path fill="#303C42" d="M5.273 12.27a2 2 0 0 0-.036-.364c-.148-.776-.7-1.36-1.283-1.36a.873.873 0 0 0-.62.26c-.216.215-.334.543-.334.921 0 .116.011.24.036.367.148.776.7 1.36 1.282 1.36.554 0 .955-.496.955-1.184z"></path>
  <path fill="#6D4C41" d="M4.26 12.402a.966.966 0 0 1-.242-.496.975.975 0 0 1-.018-.18c0-.052.005-.095.012-.128.083.081.196.25.243.496a.994.994 0 0 1 .018.178.655.655 0 0 1-.012.13z"></path>
  <path fill="#303C42" d="M4.307 9.703c.157.869.786 1.524 1.463 1.524.272 0 .53-.11.723-.308.25-.255.381-.635.37-1.07a2.15 2.15 0 0 0-.033-.324C6.672 8.655 6.043 8 5.367 8c-.273 0-.53.11-.723.307-.25.255-.381.636-.371 1.071.003.104.014.213.034.324z"></path>
  <path fill="#6D4C41" d="M5.367 9c.12 0 .4.274.479.704.01.058.016.115.017.169.006.225-.068.34-.093.354-.121 0-.401-.273-.479-.702a1.054 1.054 0 0 1-.018-.17c-.005-.225.068-.341.094-.355z"></path>
  <linearGradient id="SVGID_2_" x1="-.325" x2="24.325" y1="6.253" y2="17.747" gradientUnits="userSpaceOnUse">
    <stop offset="0" stop-color="#FFF" stop-opacity=".2"></stop>
    <stop offset="1" stop-color="#FFF" stop-opacity="0"></stop>
  </linearGradient>
  <path fill="url(#SVGID_2_)" d="M22 4H2C.897 4 0 4.897 0 6v12c0 1.103.897 2 2 2h20c1.103 0 2-.897 2-2V6c0-1.103-.897-2-2-2z"></path>
</svg>
